<svg xmlns="http://www.w3.org/2000/svg" width="596" height="595.281" viewBox="123.445 0 596 595.281"><circle fill="#0173B2" cx="420.944" cy="295.5" r="294.5"/><path fill="#FFF" d="M302.532 147.144c-19.942 0-32.964 13.432-32.555 31.34-.409 17.089 12.625 30.93 32.157 30.93 20.352 0 33.373-13.841 33.373-30.93-.408-17.908-13.033-31.34-32.975-31.34zm-30.929 296.698h61.859V232.406h-61.859v211.436zm229.12-208.459c-19.78 0-39.958-4.08-61.463 29.268h-1.228l-1.079-32.231h-54.777c.806 17.499.917 43.629.917 68.456v142.98h61.859V321.648c0-5.705.807-11.396 2.431-15.477 4.068-11.398 14.25-23.204 31.34-23.204 22.385 0 31.339 17.499 31.339 43.146v117.742h61.859V318.361c.025-58.609-30.509-82.978-71.198-82.978z"/></svg>